<svg xmlns="http://www.w3.org/2000/svg" viewBox="0 0 512 512" width="512" height="512">
  <defs>
    <linearGradient id="gradient" x1="0%" y1="0%" x2="100%" y2="100%">
      <stop offset="0%" style="stop-color:#8b5cf6" />
      <stop offset="100%" style="stop-color:#ec4899" />
    </linearGradient>
  </defs>
  
  <!-- Circle background -->
  <circle cx="256" cy="256" r="256" fill="url(#gradient)" />
  
  <!-- Droplet icon (scaled and centered) -->
  <g transform="translate(128, 96) scale(10.67)">
    <!-- Droplet outline -->
    <path 
      d="M12 22a7 7 0 0 0 7-7c0-2-1-3.9-3-5.5s-3.5-4-4-6.5c-.5 2.5-2 4.9-4 6.5C6 11.1 5 13 5 15a7 7 0 0 0 7 7z" 
      fill="white"
      stroke="white"
      stroke-width="2"
      stroke-linecap="round"
      stroke-linejoin="round"
    />
    <!-- Inner fill for depth -->
    <path 
      d="M12 22a7 7 0 0 0 7-7c0-2-1-3.9-3-5.5s-3.5-4-4-6.5c-.5 2.5-2 4.9-4 6.5C6 11.1 5 13 5 15a7 7 0 0 0 7 7z" 
      fill="rgba(255,255,255,0.3)"
    />
  </g>
</svg>
